<svg xmlns="http://www.w3.org/2000/svg" viewBox="0 0 1600 900" fill="none">
  <defs>
    <pattern id="dots" width="18" height="18" patternUnits="userSpaceOnUse">
      <circle cx="5" cy="5" r="2.8" fill="#090909" fill-opacity=".18"/>
    </pattern>
  </defs>
  <rect width="1600" height="900" fill="#a1001a"/>
  <rect width="1600" height="900" fill="url(#dots)"/>

  <g stroke="#f5edd8" stroke-opacity=".28" stroke-width="4">
    <path d="M0 300 H1600"/><path d="M0 480 H1600"/><path d="M0 660 H1600"/>
    <path d="M400 0 V900"/><path d="M800 0 V900"/><path d="M1200 0 V900"/>
  </g>

  <circle cx="1210" cy="450" r="300" fill="none" stroke="#f5c928" stroke-width="18" stroke-dasharray="10 26"/>
  <circle cx="1210" cy="450" r="196" fill="#f5edd8" stroke="#090909" stroke-width="14"/>
  <path d="M1130 452 L1196 520 L1300 380" fill="none" stroke="#a1001a" stroke-width="30" stroke-linecap="round" stroke-linejoin="round"/>

  <g stroke="#090909" stroke-width="10">
    <rect x="130" y="240" width="560" height="96" rx="14" fill="#f5edd8"/>
    <rect x="130" y="380" width="470" height="96" rx="14" fill="#f5c928"/>
    <rect x="130" y="520" width="630" height="96" rx="14" fill="#f5edd8"/>
  </g>
  <g fill="#a1001a">
    <rect x="168" y="270" width="36" height="36" rx="6"/>
    <rect x="168" y="550" width="36" height="36" rx="6"/>
  </g>
  <g fill="#090909" fill-opacity=".55">
    <rect x="240" y="278" width="380" height="20" rx="10"/>
    <rect x="240" y="418" width="280" height="20" rx="10"/>
    <rect x="240" y="558" width="440" height="20" rx="10"/>
  </g>

  <text x="130" y="810" font-family="Helvetica, Arial, sans-serif" font-weight="700" font-size="150"
        fill="none" stroke="#f5edd8" stroke-width="5" letter-spacing="6">STUDYPLANNER</text>
</svg>
