<svg xmlns="http://www.w3.org/2000/svg" viewBox="0 0 1600 900" fill="none">
  <defs>
    <pattern id="dots" width="16" height="16" patternUnits="userSpaceOnUse">
      <circle cx="4" cy="4" r="2.4" fill="#fbff00" fill-opacity=".14"/>
    </pattern>
  </defs>
  <rect width="1600" height="900" fill="#0f0029"/>
  <rect width="1600" height="900" fill="url(#dots)"/>

  <circle cx="800" cy="450" r="330" fill="none" stroke="#8a2be2" stroke-opacity=".5" stroke-width="6"/>
  <circle cx="800" cy="450" r="230" fill="none" stroke="#8a2be2" stroke-opacity=".35" stroke-width="6"/>
  <circle cx="800" cy="450" r="130" fill="none" stroke="#8a2be2" stroke-opacity=".25" stroke-width="6"/>

  <g fill="#fbff00">
    <rect x="150" y="430" width="42" height="40" rx="8"/>
    <rect x="220" y="380" width="42" height="140" rx="8"/>
    <rect x="290" y="330" width="42" height="240" rx="8"/>
    <rect x="360" y="400" width="42" height="100" rx="8"/>
    <rect x="430" y="290" width="42" height="320" rx="8"/>
    <rect x="500" y="360" width="42" height="180" rx="8"/>
    <rect x="570" y="250" width="42" height="400" rx="8"/>
    <rect x="640" y="390" width="42" height="120" rx="8"/>
    <rect x="710" y="300" width="42" height="300" rx="8"/>
    <rect x="780" y="210" width="42" height="480" rx="8"/>
    <rect x="850" y="350" width="42" height="200" rx="8"/>
    <rect x="920" y="270" width="42" height="360" rx="8"/>
    <rect x="990" y="410" width="42" height="80" rx="8"/>
    <rect x="1060" y="320" width="42" height="260" rx="8"/>
    <rect x="1130" y="390" width="42" height="120" rx="8"/>
    <rect x="1200" y="340" width="42" height="220" rx="8"/>
    <rect x="1270" y="430" width="42" height="40" rx="8"/>
    <rect x="1340" y="380" width="42" height="140" rx="8"/>
  </g>

  <path d="M150 562 L1360 562" stroke="#ed4b23" stroke-width="8" stroke-dasharray="18 14"/>

  <text x="90" y="838" font-family="Helvetica, Arial, sans-serif" font-weight="700" font-size="150"
        fill="none" stroke="#fbff00" stroke-width="5" letter-spacing="6">SIGNAL LAB</text>
</svg>
