<svg xmlns="http://www.w3.org/2000/svg" viewBox="0 0 2400 900" fill="none">
  <defs>
    <pattern id="dots" width="14" height="14" patternUnits="userSpaceOnUse">
      <circle cx="4" cy="4" r="2.4" fill="#090909" fill-opacity=".2"/>
    </pattern>
  </defs>
  <g stroke="#090909" stroke-width="8">
    <rect x="60" y="470" width="150" height="430" fill="#ed4b23"/>
    <rect x="250" y="360" width="190" height="540" fill="#f5edd8"/>
    <rect x="480" y="520" width="130" height="380" fill="#a1001a"/>
    <rect x="650" y="300" width="210" height="600" fill="#f5c928"/>
    <rect x="900" y="440" width="160" height="460" fill="#f5edd8"/>
    <rect x="1100" y="250" width="230" height="650" fill="#ed4b23"/>
    <rect x="1370" y="420" width="170" height="480" fill="#011d25"/>
    <rect x="1580" y="330" width="200" height="570" fill="#f5edd8"/>
    <rect x="1820" y="490" width="150" height="410" fill="#a1001a"/>
    <rect x="2010" y="380" width="220" height="520" fill="#f5c928"/>
    <rect x="2260" y="520" width="120" height="380" fill="#ed4b23"/>
  </g>
  <g fill="url(#dots)">
    <rect x="60" y="470" width="150" height="430"/>
    <rect x="250" y="360" width="190" height="540"/>
    <rect x="480" y="520" width="130" height="380"/>
    <rect x="650" y="300" width="210" height="600"/>
    <rect x="900" y="440" width="160" height="460"/>
    <rect x="1100" y="250" width="230" height="650"/>
    <rect x="1370" y="420" width="170" height="480"/>
    <rect x="1580" y="330" width="200" height="570"/>
    <rect x="1820" y="490" width="150" height="410"/>
    <rect x="2010" y="380" width="220" height="520"/>
    <rect x="2260" y="520" width="120" height="380"/>
  </g>
  <g font-family="Helvetica, Arial, sans-serif" font-weight="700" fill="#a1001a" fill-opacity=".28">
    <text x="115" y="200" font-size="170">{ }</text>
    <text x="800" y="160" font-size="150">&lt;/&gt;</text>
    <text x="1700" y="210" font-size="160">[ ]</text>
  </g>
</svg>
